$MeshFormat
2.2 0 8
$EndMeshFormat
$PhysicalNames
3
1 1 "doors"
1 2 "walls"
2 3 "room"
$EndPhysicalNames
$Nodes
608
1 0 0 0
2 0.5 0 0
3 2 0 0
4 10 0 0
5 10 6 0
6 9 6 0
7 7 6 0
8 0 6 0
9 4 1.5 0
10 7 1.5 0
11 7 2 0
12 4 2 0
13 0.2499999999993471 0 0
14 0.8749999999981468 0 0
15 1.249999999998159 0 0
16 1.62499999999908 0 0
17 2.400000000000555 0 0
18 2.80000000000111 0 0
19 3.200000000001665 0 0
20 3.600000000002219 0 0
21 4.000000000002688 0 0
22 4.400000000001111 0 0
23 4.799999999999446 0 0
24 5.199999999997781 0 0
25 5.599999999996117 0 0
26 5.999999999994626 0 0
27 6.399999999997226 0 0
28 6.8 0 0
29 7.200000000002774 0 0
30 7.600000000005548 0 0
31 8.000000000008148 0 0
32 8.400000000006656 0 0
33 8.800000000004992 0 0
34 9.200000000003328 0 0
35 9.600000000001664 0 0
36 10 0.3999999999982407 0
37 10 0.7999999999967187 0
38 10 1.199999999994909 0
39 10 1.599999999993484 0
40 10 1.999999999992059 0
41 10 2.399999999990634 0
42 10 2.799999999989208 0
43 10 3.199999999989264 0
44 10 3.599999999990798 0
45 10 3.999999999992331 0
46 10 4.399999999993865 0
47 10 4.799999999995399 0
48 10 5.199999999996932 0
49 10 5.599999999998466 0
50 9.666666666666666 6 0
51 9.333333333333334 6 0
52 8.59999999999112 6 0
53 8.199999999982237 6 0
54 7.799999999982237 6 0
55 7.399999999991119 6 0
56 6.611111111111294 6 0
57 6.222222222222587 6 0
58 5.833333333333881 6 0
59 5.444444444445176 6 0
60 5.05555555555647 6 0
61 4.666666666667764 6 0
62 4.277777777779058 6 0
63 3.888888888890353 6 0
64 3.50000000000156 6 0
65 3.111111111110474 6 0
66 2.722222222220941 6 0
67 2.333333333332234 6 0
68 1.944444444443529 6 0
69 1.555555555554823 6 0
70 1.166666666666118 6 0
71 0.7777777777774109 6 0
72 0.3888888888887054 6 0
73 0 5.600000000004347 0
74 0 5.200000000004046 0
75 0 4.800000000005999 0
76 0 4.400000000004876 0
77 0 4.000000000003867 0
78 0 3.600000000005648 0
79 0 3.200000000007486 0
80 0 2.800000000007844 0
81 0 2.400000000006723 0
82 0 2.000000000005603 0
83 0 1.600000000004482 0
84 0 1.200000000003362 0
85 0 0.8000000000022416 0
86 0 0.4000000000011203 0
87 4.375000000000001 1.5 0
88 4.750000000000002 1.5 0
89 5.125000000000004 1.5 0
90 5.500000000000005 1.5 0
91 5.875000000000004 1.5 0
92 6.250000000000004 1.5 0
93 6.625000000000002 1.5 0
94 7 1.75 0
95 6.624999999999999 2 0
96 6.249999999999998 2 0
97 5.874999999999996 2 0
98 5.499999999999995 2 0
99 5.124999999999996 2 0
100 4.749999999999996 2 0
101 4.374999999999998 2 0
102 4 1.75 0
103 2.53454842090697 5.617845190861722 0
104 3.78289297354807 1.878826705221787 0
105 3.776139456482686 2.126238106494243 0
106 3.554743872880913 1.999929379977096 0
107 3.552941622372563 2.26580879028282 0
108 6.8125 2.270632938682637 0
109 4.554457299101466 2.283417712726577 0
110 3.315038518283646 2.131399759144233 0
111 3.313682556568918 2.409830828355926 0
112 6.026747946489905 5.664171176338155 0
113 7.130125678724941 2.281704247690629 0
114 6.959303181222035 2.54711399439238 0
115 3.067943797889563 2.268661148049438 0
116 3.063336515698106 2.560266176724477 0
117 3.321873458546744 2.702709486709841 0
118 7.985582868526828 5.668582342871719 0
119 7.217984544025031 1.622165864016064 0
120 3.064632508654376 2.859706494601971 0
121 3.334971994108481 3.008787623982005 0
122 4.834136585583764 5.656602700821054 0
123 5.691958741600216 2.300580008948174 0
124 9.664041229573979 3.815452294654141 0
125 2.812813900276323 2.41086334654802 0
126 0.3428873879481918 3.786552826548439 0
127 7.282678394027369 2.548567737373194 0
128 7.115496350975371 2.826164879103633 0
129 3.067461554044378 3.171647506764067 0
130 3.345236375782601 3.32473006406401 0
131 1.815813755311947 0.309081454833024 0
132 0.3464101615147457 1.800000000005042 0
133 9.679365192870312 1.395594939600805 0
134 7.43696165823198 2.822949206586444 0
135 7.277040092700656 3.109591332531235 0
136 7.604273461129754 2.541196847650268 0
137 6.944665473680629 3.109736250449397 0
138 7.104655335966226 3.399161432410511 0
139 6.767852165339307 3.400750130507131 0
140 3.071673176369946 3.490406246682302 0
141 2.790187622351724 3.326137271961922 0
142 3.353917022623903 3.645976298216905 0
143 3.079063792138513 1.995512346262738 0
144 7.423752995570294 3.408611245674223 0
145 6.932294523482001 3.6984028849337 0
146 6.588628176229493 3.700813269862032 0
147 2.794343193453507 3.657550006006801 0
148 2.504260616556892 3.487643367308501 0
149 1.370913948205572 5.667478061942401 0
150 3.629793816578145 3.483785554326522 0
151 3.645001781945871 3.807421383121664 0
152 3.927541197677527 3.639879106071911 0
153 2.509994325678614 3.831813902917708 0
154 9.660230589515505 2.599327523550429 0
155 8.203813275499504 0.3500178672127827 0
156 3.941237704579923 3.97367853256458 0
157 4.230017946526639 3.801293552439598 0
158 3.651205875530619 4.146723979302128 0
159 6.753801119910936 4.00169705549327 0
160 6.407436681750323 4.006280597621803 0
161 2.213190235387931 3.663631839217255 0
162 2.215187912424079 4.007943592358338 0
163 2.211753772837163 3.313752161048641 0
164 2.618990356242473 0.3344504597621299 0
165 7.224172769674479 1.372160347899632 0
166 7.448822359579436 1.500500454546469 0
167 6.235279781986322 3.696724966040587 0
168 6.052195012250986 4.004745044871311 0
169 5.87771722930452 3.691963622326912 0
170 5.707553580170199 4.007610973272 0
171 8.765085491249978 5.639592914148254 0
172 7.184848590779824 5.665281650694368 0
173 4.243622287358317 4.140872734305144 0
174 2.518825099067186 4.17735772271196 0
175 1.915728296072548 3.49157038330312 0
176 1.91534003227966 3.143048325395169 0
177 0.3464101615141058 2.600000000007284 0
178 0.3639324284601905 4.595214101676788 0
179 1.038984307728494 0.3180691411186269 0
180 9.666474696315557 4.602564096335104 0
181 7.066113224467871 4.023950152765786 0
182 2.21894912999173 4.357500256707091 0
183 1.910962165082505 4.185391410107412 0
184 3.299109939130092 5.659630431645132 0
185 7.765416444986476 2.824273095530807 0
186 7.930723611898377 2.530353316958784 0
187 8.101225504192833 2.824730792741924 0
188 8.27062357608869 2.520948389212138 0
189 6.566641902836289 4.308646639276512 0
190 5.480226119291018 3.723140042362039 0
191 4.089616291016783 5.671838763107975 0
192 3.404002657964944 0.3398838687824958 0
193 3.795604937730135 2.401545703589724 0
194 3.560955937924723 1.710007022801051 0
195 8.448526940968225 2.819917719687703 0
196 8.274884646964209 3.128710996517766 0
197 1.612621054866735 3.32020264798218 0
198 1.613664384108817 2.970303324834332 0
199 5.858972733920464 4.305963118224577 0
200 5.525197789469283 4.316883016803467 0
201 7.449741850984832 1.229142751265611 0
202 7.696944682762514 1.365934379909854 0
203 4.213856339358783 1.221803924677564 0
204 7.211116525576188 1.096678001959125 0
205 8.974013125558987 0.3217998041116596 0
206 2.52714670004695 4.526406870430658 0
207 6.595807519365286 3.097082838088273 0
208 4.23864302758357 3.430009549045169 0
209 1.914076589945044 4.542513495465405 0
210 1.598955155771151 4.366332386216685 0
211 8.63149630850508 3.125338888797231 0
212 8.453507078543451 3.439027664217067 0
213 3.882750444172488 1.214987272728735 0
214 1.917011675556141 2.794842198268795 0
215 1.618124178876921 2.620212559540573 0
216 1.921206222470172 2.44674103090681 0
217 1.621661911180866 2.273053203922613 0
218 1.923336291180182 2.103325746264944 0
219 1.624274566525836 1.926407957016912 0
220 1.93135884046276 1.752502809657098 0
221 1.627246027483526 1.575295224558143 0
222 1.933755885965159 1.403959203300748 0
223 1.302891173986993 3.145561650652572 0
224 8.618057713507611 2.512621862542895 0
225 8.435997308470126 2.213335335575738 0
226 8.781623004623452 2.201319960569601 0
227 8.604736370476417 1.908514998445517 0
228 4.908745726886185 1.198583911296535 0
229 5.65476597610472 1.191276422657021 0
230 6.441132882064814 1.18743620548815 0
231 5.675321148743912 4.615663398553538 0
232 5.325405839147351 4.618064191400556 0
233 1.301302533098987 3.499516960481503 0
234 7.692338272802173 1.653564351658615 0
235 2.236778169199841 1.580070772869606 0
236 4.537456987837963 3.96552591829518 0
237 0.3383526551769109 0.9854388471935471 0
238 5.696236520512176 3.385440360095925 0
239 5.343563009333673 3.376748774769751 0
240 1.628387642310214 1.220802397312849 0
241 1.317513051236245 1.396949468900671 0
242 7.458751152382857 0.9118433856189987 0
243 1.320211075366775 2.082423325301615 0
244 4.052530168527703 0.9501717737222353 0
245 2.238784949663069 1.234521857281581 0
246 2.523244350087811 1.431424148994583 0
247 5.485559981995388 4.927102861021512 0
248 1.608419764883978 4.721072527314919 0
249 1.930557041536835 4.901255216770581 0
250 4.542073131857624 4.295517722790917 0
251 4.247957570925902 4.490689603026176 0
252 4.602915520428116 4.650527350082871 0
253 7.945420334653926 1.514568240295368 0
254 7.95476575980737 1.209366009915614 0
255 4.605999898624191 0.3452514262750813 0
256 1.281468298669871 4.551229895858455 0
257 7.188978120982164 0.7833880078487347 0
258 2.82592503105931 4.344843700843859 0
259 2.838906710219011 4.698014517565962 0
260 8.818368728718422 3.436943060907368 0
261 8.636709362169684 3.755144356560342 0
262 8.271484817815287 3.754279049050517 0
263 8.453511958625199 4.072442485764897 0
264 8.087407759308929 4.070736456829892 0
265 8.269228333866367 4.390541186827868 0
266 7.902581770148555 4.388859919065581 0
267 8.637858669072129 4.391975993626897 0
268 8.452766648854794 4.712051500812427 0
269 8.806574599867929 4.7031602888188 0
270 8.226101261220125 1.366869721494025 0
271 8.951218118111555 1.89141035073753 0
272 0.9883656280259185 3.325329684915135 0
273 5.393612051539116 0.3461291336780341 0
274 9.655906326580357 5.424562646165564 0
275 4.258846956868909 4.861136914628378 0
276 5.8708449633417 4.939556883639193 0
277 6.196411891275771 0.3478674934478728 0
278 0.3169649390937657 5.405707145971421 0
279 9.021789072307733 3.071808791897809 0
280 3.739082180137735 0.9445013809211035 0
281 3.579931065459971 1.206311768625177 0
282 3.431820354929614 0.9442828540581533 0
283 3.274146359366098 1.207582414096547 0
284 3.106011373176305 0.9399166615527943 0
285 8.770351961824455 1.590622969012247 0
286 7.29943002270753 2.03457618189541 0
287 8.230899188963773 1.040730224418366 0
288 5.525243063920706 3.068357306164849 0
289 5.166814400968233 3.064084332803866 0
290 4.985137859878866 3.372996367934949 0
291 4.809263172239868 3.063678643942461 0
292 5.884706287876092 3.071243409994024 0
293 1.317727718827925 4.978362762169269 0
294 1.31876487905709 1.035483447553308 0
295 3.937042147694146 4.676167840045468 0
296 0.9913143900799708 2.960159468779793 0
297 6.612686587171901 2.542215615981649 0
298 5.144618929098471 4.925423704985246 0
299 2.213359868893724 2.619377849908155 0
300 2.533486631636738 4.883142574804923 0
301 2.844720663781782 5.049010876008122 0
302 3.158933018562279 4.865521721732397 0
303 9.011194594570041 4.389643510584541 0
304 7.941482591197655 1.795993778110209 0
305 2.531611680303394 1.743339210524261 0
306 0.9933479840279897 3.700449347786805 0
307 4.839811560141078 4.110047617728395 0
308 2.514161378997082 1.087524301262728 0
309 2.236431548479589 0.9190421317572873 0
310 4.376091640785081 0.9461288731281672 0
311 3.895979188867433 0.6727033483895918 0
312 3.585898888541251 2.858126411353818 0
313 8.948570481866653 2.477245580601911 0
314 3.942156623216766 5.043971170696808 0
315 4.589025227318423 5.057250919043094 0
316 4.970488498900821 2.780221199814957 0
317 1.006049199449036 1.224537507916779 0
318 1.006069354927159 1.575424408089139 0
319 8.619308247345447 5.024961273802848 0
320 8.987361839189797 5.014639482884465 0
321 8.271520350353924 5.020854560060911 0
322 9.661923951821493 0.6024781275945212 0
323 5.316879588004006 5.255853073377195 0
324 7.977982430070033 0.8707492503793497 0
325 7.467424833896585 0.5894176625864899 0
326 9.022363024635203 3.73238649878768 0
327 0.6698652914112173 3.156442191931366 0
328 7.731570205880023 4.075351861746175 0
329 7.546614078628128 4.393755987500632 0
330 7.718894338218179 4.702997544719223 0
331 7.348926199313979 4.70583604820918 0
332 7.543880061581783 5.013372460509239 0
333 7.159503590808642 5.018442443300103 0
334 2.816740688027834 1.599854362846283 0
335 0.9687600513156107 4.750110658642516 0
336 0.931466527696622 4.333960639895984 0
337 0.9591416253184648 5.122180272315939 0
338 1.600192287599385 4.007042236024432 0
339 1.638115544171608 0.8618610867926193 0
340 6.958300873957417 0.978481875986987 0
341 6.90344135058452 0.6379097942920484 0
342 0.4260246273211734 0.238666944865357 0
343 9.121494224282582 1.573493150070605 0
344 8.94398878327941 1.26698103023319 0
345 9.323258451648394 1.944281207319827 0
346 6.990378244065007 4.684463486637959 0
347 6.786098997997123 5.016355633285297 0
348 7.772122457385009 2.260662915916385 0
349 0.9844841181287368 0.8955181075584222 0
350 0.6977669681815072 1.398021154441125 0
351 8.449180348458006 5.35802528452074 0
352 4.187500000000002 2.270632938682636 0
353 4.383815574609033 2.571533340185465 0
354 3.021773277249835 1.188372648096387 0
355 3.633178841234491 4.862199683964427 0
356 3.65408876112666 5.229701102013038 0
357 3.134949844629072 5.274600024792806 0
358 4.830363921425118 3.718856745829386 0
359 5.147342178043641 3.921189375290571 0
360 4.627982914122359 3.369513359501271 0
361 4.461243213853156 3.0924439297861 0
362 4.156827405024396 3.083280400597153 0
363 5.709186411760204 2.75810033825209 0
364 6.07001296336877 2.760953764460983 0
365 0.3118505233391213 0.5501894255870667 0
366 0.6677078778202166 0.440158807565637 0
367 8.566076456258147 1.244651708846896 0
368 8.526815190285676 0.8601520092513548 0
369 9.156508494578276 5.705820564728249 0
370 0.6515927281766787 4.881676512612948 0
371 4.943879222403202 5.252759573369291 0
372 2.538693121426954 5.248658461181792 0
373 4.979292971991519 4.629255402508252 0
374 2.233766985964881 1.920625706567202 0
375 2.547534083335438 2.031248667675569 0
376 2.2805182103401 2.264961799396262 0
377 6.616984633240635 0.8558531127628309 0
378 3.0191494124804 0.3335304719454853 0
379 2.889062849742322 0.6461850041741946 0
380 2.211016962407932 2.96498232283739 0
381 2.502555016525981 2.815528350710371 0
382 2.502735798388667 3.154203256372283 0
383 2.21880784438919 0.3215160973182401 0
384 8.607600978913947 0.315130378301384 0
385 7.800000000006846 0.3464101615136678 0
386 4.995748322513528 0.3419824302439184 0
387 5.192800462027162 0.6827182040357588 0
388 5.591278272130568 0.659675130596577 0
389 9.656938164258824 5.005799470356905 0
390 6.605268378249569 4.669290829307768 0
391 6.424661063785071 5.019589297041525 0
392 6.591550451492397 5.344326414708146 0
393 6.230564826559411 4.709963798465505 0
394 5.797995432914867 0.3413015894986217 0
395 6.008851412329381 0.7001806946723543 0
396 4.826851520544761 0.6467878623786927 0
397 6.592991248378001 0.3926029841074374 0
398 0.3428408628165971 2.202272431980183 0
399 0.6722635381291555 2.396275798619651 0
400 0.6840735147600414 2.034173528733377 0
401 4.198273844523403 0.3894073791823128 0
402 2.938067763741174 5.653281190287906 0
403 9.668369278885544 4.203649969624971 0
404 9.285040625426653 4.032430557921196 0
405 9.657339838487555 1.00649519052417 0
406 9.370549563481264 0.7963041366944776 0
407 9.331307334689573 1.234561200438382 0
408 7.584735483606778 5.663986160798977 0
409 7.76062533921833 5.329151853406962 0
410 0.3348348980053605 4.176757808095188 0
411 0.6966480205338417 3.980562412892894 0
412 4.932454115936086 2.309361237879262 0
413 5.316141312580744 2.279358350519673 0
414 9.349528680191986 4.815412521673396 0
415 3.679961183333685 5.618452318279573 0
416 3.429134802719315 1.450862147435059 0
417 3.104125266545046 1.454778210621513 0
418 3.709278441561886 1.456796370761515 0
419 6.240032130867283 3.080904956547049 0
420 8.097948266726904 2.25116952176858 0
421 2.143274144838748 5.665744171676579 0
422 1.754299921912026 5.665509400384279 0
423 1.542867646972136 5.338195155297375 0
424 1.9367926672937 5.304400072573452 0
425 4.625445696761429 2.809224630803568 0
426 1.442469249914797 0.3193460678411553 0
427 9.663160519580877 2.988073331137341 0
428 9.347369312475024 2.825545999956486 0
429 9.602703693398061 3.409339373657053 0
430 9.664796581269281 2.18575545488051 0
431 0.3379161831311935 3.37131961924706 0
432 4.468264229541809 5.666034928836857 0
433 4.269503788032897 5.290162256819196 0
434 2.54000696090439 2.517466165789759 0
435 5.614001666417851 5.587957390050458 0
436 5.906293149633592 5.297908662257692 0
437 5.216586204658617 5.63626906867063 0
438 8.100418387936358 3.435599302235874 0
439 7.91453021485515 3.749949334695973 0
440 7.583376386574519 3.737557402278468 0
441 6.059474467005483 2.294047734876044 0
442 8.224863317442127 1.933223216283063 0
443 7.208324129022249 4.365477792293874 0
444 0.6499691331853116 0.7629053281929746 0
445 6.792857758878725 5.669676172373352 0
446 6.059114722247501 3.387062858582756 0
447 1.005855943676392 5.681019826847695 0
448 6.213100894356283 4.345352336840238 0
449 3.777087443099144 0.3412467286392389 0
450 2.813218397116033 3.999638756271917 0
451 3.107122432207023 4.156977828859454 0
452 3.127135464691586 4.509674822023526 0
453 5.336527898916357 2.789495338887727 0
454 3.647285379363317 4.499795539683365 0
455 5.260893598167031 1.196438765521056 0
456 6.044122111791447 1.122569324091002 0
457 6.414452416005865 3.393889836604638 0
458 6.246934213549666 5.34293578700572 0
459 1.309129982424844 2.79173476900717 0
460 0.9926593596650808 2.593435505262472 0
461 8.841113039083151 4.062337233874258 0
462 1.278316432617721 0.6514906641572319 0
463 7.93239410747525 3.123754376636958 0
464 8.085948022856071 4.701638692692514 0
465 1.284262444307029 4.186891961942662 0
466 9.310377791086704 2.41710782337529 0
467 5.148595210543831 4.289363928384775 0
468 3.603700735138431 3.169214009229427 0
469 6.772227915868552 2.816867737549066 0
470 3.944725160908704 4.32132137148781 0
471 1.915453992371543 3.836728328178811 0
472 2.226389789206892 4.711820200240361 0
473 9.192282915568255 3.418757796044526 0
474 1.936131470003144 1.053251299730722 0
475 6.415237283957429 5.670184925070895 0
476 2.796640799652311 3.017176064366875 0
477 3.080955851029483 3.814922319062519 0
478 1.993197885532988 0.6685495310524427 0
479 2.796664283618581 2.696834433123579 0
480 1.307123485630227 2.427649695701265 0
481 8.790143736457591 2.799768360376642 0
482 1.323538289035598 1.742057065405704 0
483 9.486036966227237 5.728252844478246 0
484 3.321442027592319 1.868788123203411 0
485 0.6710844296793338 2.775508374354895 0
486 7.646317259337236 1.97879010548395 0
487 9.050890153007444 5.395713180189402 0
488 9.338993082760293 5.191274038771812 0
489 7.417277058108272 1.772312751073119 0
490 2.827049568211208 2.135303079134986 0
491 6.80333714951653 1.241578933360754 0
492 3.250924366615256 0.649864289400321 0
493 8.419935877650286 1.631362584058091 0
494 8.227265974278039 0.7037621506473222 0
495 6.976247572753993 5.340909135601425 0
496 9.682436916094609 1.786953202687501 0
497 7.601145429419901 3.116888273819613 0
498 6.414602478313356 2.79321745900847 0
499 0.3357139762426807 2.980924751801924 0
500 9.375584189566762 0.3565529600063307 0
501 1.003707772037554 2.238299977031021 0
502 1.61072307522631 3.665794208495591 0
503 0.6203116180989732 5.636578081211091 0
504 2.23654991311103 5.070167232025329 0
505 3.583149365269021 0.6487470783651508 0
506 0.6715050825130588 3.553442680553617 0
507 0.3758655150236372 1.397564498137773 0
508 3.572132540799627 2.562817226808406 0
509 7.368306773124891 5.338523950718512 0
510 7.715632464964633 1.038350846500205 0
511 6.43491113293253 2.275114315754251 0
512 3.370924360662022 3.980394984010046 0
513 1.297505288079826 3.8463619662204 0
514 7.462495777080385 2.277590759986553 0
515 4.205817657445679 0.730497242694273 0
516 8.752173877812435 0.6116893946537925 0
517 7.185075414778732 0.4355287056923552 0
518 4.05745594400105 2.501158500603507 0
519 9.354248197334746 4.425409221500818 0
520 7.759269586971912 3.428726655890184 0
521 2.474316839595838 0.690767344044791 0
522 7.917291142630136 5.016036106526311 0
523 8.376422402354073 5.686574022797948 0
524 4.123570131172277 2.798507762204229 0
525 4.548485151072647 1.215261610513385 0
526 8.831904994723136 0.9361962524352926 0
527 7.450500049738096 0.2742713059585026 0
528 1.192599628912001 5.360168817228539 0
529 3.897862523597986 3.301759830727653 0
530 3.927426447009806 5.370933123201904 0
531 4.616175980705863 5.372516966769635 0
532 9.365461102665989 3.142705058538643 0
533 3.827555233638365 2.687757661609237 0
534 4.49289295949913 3.657039825022121 0
535 6.289152163473906 0.8928255133554848 0
536 9.063009569467352 2.186272984520832 0
537 3.381040016645605 4.327993829285203 0
538 0.3077508060000706 5.012939830594069 0
539 2.818408075535144 1.872583528852199 0
540 7.253885800952665 3.728517234082134 0
541 5.157326617594464 3.622586261237339 0
542 0.7067245849884163 4.567547792852904 0
543 6.899431085604607 0.308502258486224 0
544 8.126770408590216 5.346537361697431 0
545 3.084578332361578 1.736873537161737 0
546 0.6267099242705855 5.242209567584725 0
547 1.019506434298055 1.896191815140231 0
548 1.024186245992031 4.01374911762684 0
549 7.749209979451385 0.6697391575646416 0
550 7.39831397092091 4.054101738444511 0
551 2.816919712737135 0.9670709914386993 0
552 0.6754145981908566 1.110664240573437 0
553 2.806272843340706 5.3683741045697 0
554 3.810625470606936 1.659126019756871 0
555 6.865087833091986 4.342254325962527 0
556 2.27797165351548 5.381363025663774 0
557 0.6882819914508576 1.683562567424448 0
558 1.625476187760488 0.5594475840415737 0
559 3.386332331468672 4.67942352313767 0
560 3.865902486185451 2.983107679286919 0
561 1.645767410915348 5.033930469859104 0
562 4.851946374247946 4.903043389997751 0
563 9.358857179994228 3.692918507720438 0
564 4.48004196022149 0.6638542896060952 0
565 8.151560676432823 1.648403508048151 0
566 7.186938324968167 1.835810959396919 0
567 0.9170433360865933 0.6013657824261044 0
568 0.6874999999990735 0.1802637876760833 0
569 6.247162572367935 2.535267840889523 0
570 3.394680125530286 5.051418143938216 0
571 9.427201270779669 1.596087614338325 0
572 5.411864771640715 4.044693773128613 0
573 0.2915730766369387 5.705569385369512 0
574 9.707179676973658 0.2928203230263088 0
575 5.968002220095539 4.577210535610841 0
576 3.963340067642774 2.259915049874022 0
577 8.762390186777059 5.292427121246117 0
578 5.884872740265157 2.533122029436533 0
579 5.773619136195633 0.9051957449779684 0
580 4.688890965947207 0.9270439779355284 0
581 6.135859643373887 5.061990885681926 0
582 7.925219408806925 2.052533844183595 0
583 5.006280722279047 0.9002727951240507 0
584 7.99991043702498 0.564920023199168 0
585 4.763775819628113 2.545030748084674 0
586 9.079885870602222 0.638407098558231 0
587 9.33333333333335 5.491516931361143 0
588 3.412245191798086 5.386019657895957 0
589 3.300047273428596 1.644261808244554 0
590 9.761721991894852 5.750563098128455 0
591 5.515492847946968 2.535304810381445 0
592 4.813109499952599 4.390439594326608 0
593 0.1975750301319284 0.2377712740907089 0
594 5.3914129620735 0.9037553108975149 0
595 8.470133365211559 0.579087190755176 0
596 6.337837375798502 0.6183829899192645 0
597 7.039385463744924 1.2377798318413 0
598 5.624487924233569 5.201327758117495 0
599 9.117211959366365 0.9985169069092699 0
600 5.132531601406275 2.533118448405173 0
601 4.378882368553849 2.827745948861917 0
602 0.6121824661521156 4.304344143092647 0
603 9.092446830436302 4.653514429779273 0
604 2.784181907466939 1.323791133274163 0
605 6.403894000500388 4.508313400972506 0
606 0.8809237480552832 5.408431313037597 0
607 9.083650078838742 2.718295311241627 0
608 2.610385624807436 2.274324594034165 0
$EndNodes
$Elements
1216
1 1 2 2 1 1 13
2 1 2 2 1 13 2
3 1 2 1 2 2 14
4 1 2 1 2 14 15
5 1 2 1 2 15 16
6 1 2 1 2 16 3
7 1 2 2 3 3 17
8 1 2 2 3 17 18
9 1 2 2 3 18 19
10 1 2 2 3 19 20
11 1 2 2 3 20 21
12 1 2 2 3 21 22
13 1 2 2 3 22 23
14 1 2 2 3 23 24
15 1 2 2 3 24 25
16 1 2 2 3 25 26
17 1 2 2 3 26 27
18 1 2 2 3 27 28
19 1 2 2 3 28 29
20 1 2 2 3 29 30
21 1 2 2 3 30 31
22 1 2 2 3 31 32
23 1 2 2 3 32 33
24 1 2 2 3 33 34
25 1 2 2 3 34 35
26 1 2 2 3 35 4
27 1 2 2 4 4 36
28 1 2 2 4 36 37
29 1 2 2 4 37 38
30 1 2 2 4 38 39
31 1 2 2 4 39 40
32 1 2 2 4 40 41
33 1 2 2 4 41 42
34 1 2 2 4 42 43
35 1 2 2 4 43 44
36 1 2 2 4 44 45
37 1 2 2 4 45 46
38 1 2 2 4 46 47
39 1 2 2 4 47 48
40 1 2 2 4 48 49
41 1 2 2 4 49 5
42 1 2 2 5 5 50
43 1 2 2 5 50 51
44 1 2 2 5 51 6
45 1 2 1 6 6 52
46 1 2 1 6 52 53
47 1 2 1 6 53 54
48 1 2 1 6 54 55
49 1 2 1 6 55 7
50 1 2 2 7 7 56
51 1 2 2 7 56 57
52 1 2 2 7 57 58
53 1 2 2 7 58 59
54 1 2 2 7 59 60
55 1 2 2 7 60 61
56 1 2 2 7 61 62
57 1 2 2 7 62 63
58 1 2 2 7 63 64
59 1 2 2 7 64 65
60 1 2 2 7 65 66
61 1 2 2 7 66 67
62 1 2 2 7 67 68
63 1 2 2 7 68 69
64 1 2 2 7 69 70
65 1 2 2 7 70 71
66 1 2 2 7 71 72
67 1 2 2 7 72 8
68 1 2 2 8 8 73
69 1 2 2 8 73 74
70 1 2 2 8 74 75
71 1 2 2 8 75 76
72 1 2 2 8 76 77
73 1 2 2 8 77 78
74 1 2 2 8 78 79
75 1 2 2 8 79 80
76 1 2 2 8 80 81
77 1 2 2 8 81 82
78 1 2 2 8 82 83
79 1 2 2 8 83 84
80 1 2 2 8 84 85
81 1 2 2 8 85 86
82 1 2 2 8 86 1
83 1 2 2 9 9 87
84 1 2 2 9 87 88
85 1 2 2 9 88 89
86 1 2 2 9 89 90
87 1 2 2 9 90 91
88 1 2 2 9 91 92
89 1 2 2 9 92 93
90 1 2 2 9 93 10
91 1 2 2 10 10 94
92 1 2 2 10 94 11
93 1 2 2 11 11 95
94 1 2 2 11 95 96
95 1 2 2 11 96 97
96 1 2 2 11 97 98
97 1 2 2 11 98 99
98 1 2 2 11 99 100
99 1 2 2 11 100 101
100 1 2 2 11 101 12
101 1 2 2 12 12 102
102 1 2 2 12 102 9
103 2 2 3 1 404 303 461
104 2 2 3 1 510 242 549
105 2 2 3 1 346 390 555
106 2 2 3 1 27 28 397
107 2 2 3 1 345 430 466
108 2 2 3 1 357 184 402
109 2 2 3 1 367 285 493
110 2 2 3 1 390 189 555
111 2 2 3 1 435 323 598
112 2 2 3 1 342 365 593
113 2 2 3 1 323 435 437
114 2 2 3 1 361 208 362
115 2 2 3 1 345 466 536
116 2 2 3 1 284 379 492
117 2 2 3 1 360 208 361
118 2 2 3 1 286 486 514
119 2 2 3 1 379 378 492
120 2 2 3 1 122 371 437
121 2 2 3 1 371 323 437
122 2 2 3 1 486 286 489
123 2 2 3 1 314 275 433
124 2 2 3 1 478 383 521
125 2 2 3 1 350 507 552
126 2 2 3 1 290 358 360
127 2 2 3 1 309 478 521
128 2 2 3 1 507 237 552
129 2 2 3 1 411 126 506
130 2 2 3 1 326 404 461
131 2 2 3 1 377 340 491
132 2 2 3 1 344 285 367
133 2 2 3 1 357 402 553
134 2 2 3 1 230 377 491
135 2 2 3 1 275 315 433
136 2 2 3 1 308 521 551
137 2 2 3 1 324 510 549
138 2 2 3 1 401 311 449
139 2 2 3 1 507 350 557
140 2 2 3 1 132 507 557
141 2 2 3 1 397 28 543
142 2 2 3 1 306 411 506
143 2 2 3 1 86 1 593
144 2 2 3 1 434 125 479
145 2 2 3 1 474 339 478
146 2 2 3 1 293 423 528
147 2 2 3 1 277 27 397
148 2 2 3 1 381 434 479
149 2 2 3 1 351 171 523
150 2 2 3 1 303 404 519
151 2 2 3 1 521 379 551
152 2 2 3 1 540 440 550
153 2 2 3 1 171 351 577
154 2 2 3 1 360 358 534
155 2 2 3 1 29 517 543
156 2 2 3 1 401 255 564
157 2 2 3 1 181 540 550
158 2 2 3 1 423 293 561
159 2 2 3 1 270 367 493
160 2 2 3 1 12 101 352
161 2 2 3 1 430 345 496
162 2 2 3 1 95 11 108
163 2 2 3 1 375 305 539
164 2 2 3 1 515 401 564
165 2 2 3 1 517 29 527
166 2 2 3 1 456 395 535
167 2 2 3 1 242 325 549
168 2 2 3 1 213 9 418
169 2 2 3 1 179 366 568
170 2 2 3 1 434 376 608
171 2 2 3 1 395 456 579
172 2 2 3 1 376 375 608
173 2 2 3 1 409 408 509
174 2 2 3 1 365 86 593
175 2 2 3 1 551 354 604
176 2 2 3 1 365 342 366
177 2 2 3 1 190 359 541
178 2 2 3 1 184 357 588
179 2 2 3 1 194 416 418
180 2 2 3 1 95 108 511
181 2 2 3 1 179 462 567
182 2 2 3 1 325 385 549
183 2 2 3 1 473 429 563
184 2 2 3 1 308 551 604
185 2 2 3 1 523 118 544
186 2 2 3 1 311 401 515
187 2 2 3 1 508 193 533
188 2 2 3 1 108 297 511
189 2 2 3 1 429 473 532
190 2 2 3 1 21 401 449
191 2 2 3 1 87 9 203
192 2 2 3 1 359 190 572
193 2 2 3 1 322 406 500
194 2 2 3 1 203 9 213
195 2 2 3 1 309 474 478
196 2 2 3 1 344 367 526
197 2 2 3 1 179 426 462
198 2 2 3 1 352 109 353
199 2 2 3 1 351 523 544
200 2 2 3 1 486 348 514
201 2 2 3 1 385 325 527
202 2 2 3 1 436 435 598
203 2 2 3 1 439 440 520
204 2 2 3 1 164 378 379
205 2 2 3 1 490 375 539
206 2 2 3 1 141 148 382
207 2 2 3 1 332 409 509
208 2 2 3 1 425 353 585
209 2 2 3 1 343 344 407
210 2 2 3 1 299 216 376
211 2 2 3 1 500 406 586
212 2 2 3 1 469 207 498
213 2 2 3 1 192 449 505
214 2 2 3 1 148 163 382
215 2 2 3 1 361 362 601
216 2 2 3 1 362 524 601
217 2 2 3 1 127 113 514
218 2 2 3 1 87 203 525
219 2 2 3 1 480 460 501
220 2 2 3 1 378 192 492
221 2 2 3 1 218 374 376
222 2 2 3 1 249 424 561
223 2 2 3 1 313 466 607
224 2 2 3 1 327 431 499
225 2 2 3 1 108 11 113
226 2 2 3 1 131 3 383
227 2 2 3 1 440 144 520
228 2 2 3 1 164 18 378
229 2 2 3 1 366 179 567
230 2 2 3 1 31 155 385
231 2 2 3 1 353 109 585
232 2 2 3 1 203 310 525
233 2 2 3 1 6 52 171
234 2 2 3 1 40 430 496
235 2 2 3 1 208 360 534
236 2 2 3 1 10 93 491
237 2 2 3 1 424 249 504
238 2 2 3 1 466 428 607
239 2 2 3 1 308 309 521
240 2 2 3 1 417 334 604
241 2 2 3 1 382 381 476
242 2 2 3 1 478 339 558
243 2 2 3 1 358 290 541
244 2 2 3 1 431 79 499
245 2 2 3 1 374 375 376
246 2 2 3 1 314 433 530
247 2 2 3 1 218 220 374
248 2 2 3 1 126 431 506
249 2 2 3 1 103 372 553
250 2 2 3 1 278 538 546
251 2 2 3 1 237 85 365
252 2 2 3 1 312 508 533
253 2 2 3 1 85 86 365
254 2 2 3 1 415 356 530
255 2 2 3 1 22 255 401
256 2 2 3 1 3 17 383
257 2 2 3 1 163 380 382
258 2 2 3 1 343 407 571
259 2 2 3 1 476 381 479
260 2 2 3 1 243 480 501
261 2 2 3 1 279 428 532
262 2 2 3 1 388 394 395
263 2 2 3 1 216 218 376
264 2 2 3 1 163 176 380
265 2 2 3 1 393 276 575
266 2 2 3 1 101 109 352
267 2 2 3 1 428 279 607
268 2 2 3 1 304 442 582
269 2 2 3 1 414 389 488
270 2 2 3 1 299 376 434
271 2 2 3 1 443 346 555
272 2 2 3 1 194 418 554
273 2 2 3 1 19 192 378
274 2 2 3 1 26 277 394
275 2 2 3 1 383 164 521
276 2 2 3 1 276 393 581
277 2 2 3 1 356 415 588
278 2 2 3 1 19 20 192
279 2 2 3 1 235 246 305
280 2 2 3 1 297 469 498
281 2 2 3 1 354 417 604
282 2 2 3 1 381 299 434
283 2 2 3 1 462 349 567
284 2 2 3 1 371 315 562
285 2 2 3 1 305 246 334
286 2 2 3 1 320 414 488
287 2 2 3 1 186 348 420
288 2 2 3 1 17 164 383
289 2 2 3 1 33 205 384
290 2 2 3 1 449 311 505
291 2 2 3 1 442 420 582
292 2 2 3 1 398 132 400
293 2 2 3 1 44 124 429
294 2 2 3 1 30 31 385
295 2 2 3 1 336 411 548
296 2 2 3 1 25 26 394
297 2 2 3 1 371 122 531
298 2 2 3 1 394 277 395
299 2 2 3 1 180 47 389
300 2 2 3 1 386 273 387
301 2 2 3 1 31 32 155
302 2 2 3 1 124 403 404
303 2 2 3 1 98 123 413
304 2 2 3 1 295 454 470
305 2 2 3 1 281 213 418
306 2 2 3 1 225 420 442
307 2 2 3 1 24 273 386
308 2 2 3 1 21 22 401
309 2 2 3 1 82 132 398
310 2 2 3 1 214 216 299
311 2 2 3 1 180 389 414
312 2 2 3 1 66 103 402
313 2 2 3 1 410 126 411
314 2 2 3 1 6 171 369
315 2 2 3 1 113 286 514
316 2 2 3 1 322 405 406
317 2 2 3 1 155 32 384
318 2 2 3 1 454 158 470
319 2 2 3 1 538 370 546
320 2 2 3 1 386 387 396
321 2 2 3 1 422 423 424
322 2 2 3 1 118 408 409
323 2 2 3 1 41 154 430
324 2 2 3 1 220 235 374
325 2 2 3 1 124 45 403
326 2 2 3 1 337 293 528
327 2 2 3 1 380 299 381
328 2 2 3 1 207 419 498
329 2 2 3 1 118 54 408
330 2 2 3 1 255 386 396
331 2 2 3 1 439 328 440
332 2 2 3 1 315 371 531
333 2 2 3 1 264 328 439
334 2 2 3 1 406 405 407
335 2 2 3 1 445 56 475
336 2 2 3 1 154 428 466
337 2 2 3 1 177 398 399
338 2 2 3 1 77 126 410
339 2 2 3 1 374 305 375
340 2 2 3 1 176 214 380
341 2 2 3 1 280 213 281
342 2 2 3 1 424 423 561
343 2 2 3 1 22 23 255
344 2 2 3 1 235 245 246
345 2 2 3 1 17 18 164
346 2 2 3 1 422 149 423
347 2 2 3 1 178 370 538
348 2 2 3 1 154 427 428
349 2 2 3 1 379 284 551
350 2 2 3 1 2 14 568
351 2 2 3 1 255 23 386
352 2 2 3 1 392 445 475
353 2 2 3 1 322 37 405
354 2 2 3 1 405 133 407
355 2 2 3 1 38 39 133
356 2 2 3 1 432 191 433
357 2 2 3 1 291 360 361
358 2 2 3 1 419 207 457
359 2 2 3 1 191 63 415
360 2 2 3 1 48 274 389
361 2 2 3 1 399 398 400
362 2 2 3 1 69 149 422
363 2 2 3 1 402 103 553
364 2 2 3 1 48 49 274
365 2 2 3 1 101 100 109
366 2 2 3 1 220 222 235
367 2 2 3 1 446 419 457
368 2 2 3 1 188 186 420
369 2 2 3 1 38 133 405
370 2 2 3 1 18 19 378
371 2 2 3 1 141 382 476
372 2 2 3 1 214 299 380
373 2 2 3 1 172 7 445
374 2 2 3 1 60 122 437
375 2 2 3 1 372 103 556
376 2 2 3 1 131 383 478
377 2 2 3 1 235 305 374
378 2 2 3 1 367 368 526
379 2 2 3 1 214 215 216
380 2 2 3 1 177 81 398
381 2 2 3 1 362 208 529
382 2 2 3 1 55 7 172
383 2 2 3 1 109 100 412
384 2 2 3 1 411 336 602
385 2 2 3 1 62 191 432
386 2 2 3 1 126 78 431
387 2 2 3 1 225 188 420
388 2 2 3 1 154 42 427
389 2 2 3 1 186 136 348
390 2 2 3 1 66 67 103
391 2 2 3 1 46 180 403
392 2 2 3 1 40 41 430
393 2 2 3 1 82 83 132
394 2 2 3 1 427 43 429
395 2 2 3 1 184 65 402
396 2 2 3 1 307 359 467
397 2 2 3 1 112 435 436
398 2 2 3 1 273 25 394
399 2 2 3 1 103 67 421
400 2 2 3 1 41 42 154
401 2 2 3 1 77 78 126
402 2 2 3 1 179 15 426
403 2 2 3 1 16 3 131
404 2 2 3 1 43 44 429
405 2 2 3 1 421 422 424
406 2 2 3 1 46 47 180
407 2 2 3 1 12 352 576
408 2 2 3 1 99 98 413
409 2 2 3 1 123 97 441
410 2 2 3 1 412 99 413
411 2 2 3 1 292 364 419
412 2 2 3 1 80 81 177
413 2 2 3 1 178 76 410
414 2 2 3 1 44 45 124
415 2 2 3 1 64 184 415
416 2 2 3 1 84 85 237
417 2 2 3 1 262 264 439
418 2 2 3 1 176 198 214
419 2 2 3 1 387 273 388
420 2 2 3 1 153 147 450
421 2 2 3 1 53 54 118
422 2 2 3 1 16 131 426
423 2 2 3 1 331 346 443
424 2 2 3 1 64 65 184
425 2 2 3 1 380 381 382
426 2 2 3 1 224 188 225
427 2 2 3 1 112 58 435
428 2 2 3 1 485 327 499
429 2 2 3 1 81 82 398
430 2 2 3 1 65 66 402
431 2 2 3 1 47 48 389
432 2 2 3 1 62 63 191
433 2 2 3 1 185 187 463
434 2 2 3 1 57 58 112
435 2 2 3 1 97 96 441
436 2 2 3 1 32 33 384
437 2 2 3 1 291 290 360
438 2 2 3 1 458 392 475
439 2 2 3 1 421 68 422
440 2 2 3 1 438 262 439
441 2 2 3 1 346 347 390
442 2 2 3 1 45 46 403
443 2 2 3 1 76 77 410
444 2 2 3 1 78 79 431
445 2 2 3 1 216 217 218
446 2 2 3 1 26 27 277
447 2 2 3 1 24 25 273
448 2 2 3 1 390 391 393
449 2 2 3 1 237 365 444
450 2 2 3 1 435 59 437
451 2 2 3 1 68 69 422
452 2 2 3 1 23 24 386
453 2 2 3 1 98 97 123
454 2 2 3 1 75 76 178
455 2 2 3 1 122 61 432
456 2 2 3 1 42 43 427
457 2 2 3 1 55 172 408
458 2 2 3 1 292 363 364
459 2 2 3 1 212 262 438
460 2 2 3 1 169 238 446
461 2 2 3 1 264 266 328
462 2 2 3 1 113 11 286
463 2 2 3 1 33 34 205
464 2 2 3 1 59 60 437
465 2 2 3 1 54 55 408
466 2 2 3 1 63 64 415
467 2 2 3 1 416 281 418
468 2 2 3 1 408 172 509
469 2 2 3 1 329 331 443
470 2 2 3 1 291 361 425
471 2 2 3 1 169 168 170
472 2 2 3 1 289 239 290
473 2 2 3 1 61 62 432
474 2 2 3 1 172 445 495
475 2 2 3 1 174 153 450
476 2 2 3 1 331 333 346
477 2 2 3 1 73 74 278
478 2 2 3 1 58 59 435
479 2 2 3 1 67 68 421
480 2 2 3 1 262 263 264
481 2 2 3 1 100 99 412
482 2 2 3 1 235 222 245
483 2 2 3 1 37 38 405
484 2 2 3 1 212 261 262
485 2 2 3 1 167 169 446
486 2 2 3 1 232 298 373
487 2 2 3 1 389 274 488
488 2 2 3 1 169 170 190
489 2 2 3 1 60 61 122
490 2 2 3 1 268 269 319
491 2 2 3 1 238 292 446
492 2 2 3 1 192 20 449
493 2 2 3 1 15 16 426
494 2 2 3 1 289 290 291
495 2 2 3 1 36 37 322
496 2 2 3 1 370 178 542
497 2 2 3 1 214 198 215
498 2 2 3 1 262 261 263
499 2 2 3 1 244 213 280
500 2 2 3 1 168 160 448
501 2 2 3 1 14 15 179
502 2 2 3 1 196 212 438
503 2 2 3 1 187 196 463
504 2 2 3 1 70 71 447
505 2 2 3 1 391 392 458
506 2 2 3 1 227 225 442
507 2 2 3 1 149 70 447
508 2 2 3 1 20 21 449
509 2 2 3 1 226 225 227
510 2 2 3 1 283 281 416
511 2 2 3 1 69 70 149
512 2 2 3 1 390 347 391
513 2 2 3 1 216 215 217
514 2 2 3 1 167 168 169
515 2 2 3 1 7 56 445
516 2 2 3 1 328 266 329
517 2 2 3 1 238 190 239
518 2 2 3 1 292 419 446
519 2 2 3 1 238 288 292
520 2 2 3 1 288 239 289
521 2 2 3 1 206 174 258
522 2 2 3 1 116 120 479
523 2 2 3 1 246 245 308
524 2 2 3 1 346 333 347
525 2 2 3 1 316 291 425
526 2 2 3 1 388 273 394
527 2 2 3 1 307 236 358
528 2 2 3 1 430 154 466
529 2 2 3 1 232 373 467
530 2 2 3 1 295 314 355
531 2 2 3 1 429 124 563
532 2 2 3 1 170 168 199
533 2 2 3 1 251 275 295
534 2 2 3 1 271 227 285
535 2 2 3 1 251 295 470
536 2 2 3 1 460 399 501
537 2 2 3 1 307 358 359
538 2 2 3 1 169 190 238
539 2 2 3 1 240 294 339
540 2 2 3 1 167 160 168
541 2 2 3 1 289 291 316
542 2 2 3 1 112 436 458
543 2 2 3 1 268 319 321
544 2 2 3 1 319 269 320
545 2 2 3 1 28 29 543
546 2 2 3 1 292 288 363
547 2 2 3 1 258 451 452
548 2 2 3 1 180 414 519
549 2 2 3 1 170 199 200
550 2 2 3 1 112 458 475
551 2 2 3 1 288 289 453
552 2 2 3 1 238 239 288
553 2 2 3 1 160 189 448
554 2 2 3 1 451 450 477
555 2 2 3 1 264 263 265
556 2 2 3 1 579 229 594
557 2 2 3 1 268 267 269
558 2 2 3 1 265 267 268
559 2 2 3 1 148 161 163
560 2 2 3 1 167 446 457
561 2 2 3 1 295 355 454
562 2 2 3 1 301 259 302
563 2 2 3 1 265 268 464
564 2 2 3 1 264 265 266
565 2 2 3 1 329 330 331
566 2 2 3 1 157 152 208
567 2 2 3 1 431 327 506
568 2 2 3 1 258 174 450
569 2 2 3 1 89 88 228
570 2 2 3 1 91 90 229
571 2 2 3 1 90 89 455
572 2 2 3 1 92 91 456
573 2 2 3 1 93 92 230
574 2 2 3 1 321 319 351
575 2 2 3 1 289 316 453
576 2 2 3 1 455 583 594
577 2 2 3 1 250 236 307
578 2 2 3 1 125 116 479
579 2 2 3 1 132 83 507
580 2 2 3 1 256 335 336
581 2 2 3 1 134 127 136
582 2 2 3 1 177 485 499
583 2 2 3 1 183 210 338
584 2 2 3 1 199 168 448
585 2 2 3 1 146 160 167
586 2 2 3 1 212 260 261
587 2 2 3 1 218 217 219
588 2 2 3 1 193 518 533
589 2 2 3 1 258 450 451
590 2 2 3 1 218 219 220
591 2 2 3 1 56 57 475
592 2 2 3 1 224 225 226
593 2 2 3 1 183 338 471
594 2 2 3 1 196 438 463
595 2 2 3 1 433 315 531
596 2 2 3 1 200 231 232
597 2 2 3 1 220 221 222
598 2 2 3 1 331 332 333
599 2 2 3 1 222 221 240
600 2 2 3 1 295 275 314
601 2 2 3 1 391 347 392
602 2 2 3 1 329 266 330
603 2 2 3 1 232 247 298
604 2 2 3 1 163 175 176
605 2 2 3 1 247 231 276
606 2 2 3 1 146 159 160
607 2 2 3 1 334 417 545
608 2 2 3 1 591 453 600
609 2 2 3 1 268 321 464
610 2 2 3 1 173 157 236
611 2 2 3 1 318 241 482
612 2 2 3 1 363 288 453
613 2 2 3 1 248 209 249
614 2 2 3 1 159 145 181
615 2 2 3 1 411 306 548
616 2 2 3 1 339 294 462
617 2 2 3 1 355 314 356
618 2 2 3 1 84 237 507
619 2 2 3 1 263 261 461
620 2 2 3 1 162 153 174
621 2 2 3 1 206 258 259
622 2 2 3 1 200 199 231
623 2 2 3 1 266 265 464
624 2 2 3 1 404 403 519
625 2 2 3 1 298 323 371
626 2 2 3 1 302 259 452
627 2 2 3 1 259 258 452
628 2 2 3 1 14 179 568
629 2 2 3 1 182 174 206
630 2 2 3 1 156 152 157
631 2 2 3 1 240 339 474
632 2 2 3 1 317 241 318
633 2 2 3 1 160 159 189
634 2 2 3 1 139 145 146
635 2 2 3 1 354 283 417
636 2 2 3 1 269 267 303
637 2 2 3 1 146 145 159
638 2 2 3 1 129 140 141
639 2 2 3 1 331 330 332
640 2 2 3 1 261 260 326
641 2 2 3 1 301 302 357
642 2 2 3 1 173 250 251
643 2 2 3 1 89 228 455
644 2 2 3 1 229 90 455
645 2 2 3 1 91 229 456
646 2 2 3 1 230 92 456
647 2 2 3 1 285 227 493
648 2 2 3 1 240 221 241
649 2 2 3 1 120 129 476
650 2 2 3 1 196 211 212
651 2 2 3 1 265 263 267
652 2 2 3 1 223 272 296
653 2 2 3 1 137 139 207
654 2 2 3 1 176 197 198
655 2 2 3 1 156 157 173
656 2 2 3 1 232 231 247
657 2 2 3 1 173 236 250
658 2 2 3 1 139 146 457
659 2 2 3 1 298 247 323
660 2 2 3 1 335 337 370
661 2 2 3 1 151 156 158
662 2 2 3 1 136 127 514
663 2 2 3 1 309 245 474
664 2 2 3 1 455 228 583
665 2 2 3 1 146 167 457
666 2 2 3 1 335 293 337
667 2 2 3 1 240 241 294
668 2 2 3 1 220 219 221
669 2 2 3 1 163 161 175
670 2 2 3 1 185 136 186
671 2 2 3 1 251 252 275
672 2 2 3 1 330 266 464
673 2 2 3 1 39 40 496
674 2 2 3 1 343 285 344
675 2 2 3 1 271 285 343
676 2 2 3 1 300 301 372
677 2 2 3 1 261 326 461
678 2 2 3 1 260 211 279
679 2 2 3 1 294 317 349
680 2 2 3 1 251 250 252
681 2 2 3 1 212 211 260
682 2 2 3 1 256 336 465
683 2 2 3 1 245 222 474
684 2 2 3 1 120 121 129
685 2 2 3 1 369 171 487
686 2 2 3 1 162 174 182
687 2 2 3 1 294 349 462
688 2 2 3 1 79 80 499
689 2 2 3 1 459 296 460
690 2 2 3 1 96 95 511
691 2 2 3 1 129 130 140
692 2 2 3 1 226 227 271
693 2 2 3 1 57 112 475
694 2 2 3 1 162 182 183
695 2 2 3 1 114 113 127
696 2 2 3 1 283 416 417
697 2 2 3 1 275 252 315
698 2 2 3 1 297 498 569
699 2 2 3 1 139 138 145
700 2 2 3 1 272 233 306
701 2 2 3 1 200 232 467
702 2 2 3 1 187 186 188
703 2 2 3 1 338 210 465
704 2 2 3 1 121 117 312
705 2 2 3 1 256 293 335
706 2 2 3 1 207 139 457
707 2 2 3 1 210 248 256
708 2 2 3 1 183 209 210
709 2 2 3 1 267 263 461
710 2 2 3 1 206 259 300
711 2 2 3 1 215 198 459
712 2 2 3 1 256 248 293
713 2 2 3 1 151 152 156
714 2 2 3 1 210 209 248
715 2 2 3 1 195 188 224
716 2 2 3 1 317 318 350
717 2 2 3 1 300 259 301
718 2 2 3 1 308 245 309
719 2 2 3 1 176 175 197
720 2 2 3 1 183 182 209
721 2 2 3 1 34 35 500
722 2 2 3 1 223 197 233
723 2 2 3 1 294 241 317
724 2 2 3 1 151 150 152
725 2 2 3 1 128 134 135
726 2 2 3 1 94 10 119
727 2 2 3 1 436 276 581
728 2 2 3 1 141 147 148
729 2 2 3 1 219 217 243
730 2 2 3 1 443 181 550
731 2 2 3 1 140 130 142
732 2 2 3 1 53 118 523
733 2 2 3 1 198 197 223
734 2 2 3 1 102 12 104
735 2 2 3 1 296 272 327
736 2 2 3 1 142 130 150
737 2 2 3 1 413 591 600
738 2 2 3 1 282 281 283
739 2 2 3 1 161 153 162
740 2 2 3 1 129 121 130
741 2 2 3 1 223 296 459
742 2 2 3 1 128 127 134
743 2 2 3 1 148 153 161
744 2 2 3 1 223 233 272
745 2 2 3 1 141 140 147
746 2 2 3 1 196 195 211
747 2 2 3 1 340 204 597
748 2 2 3 1 373 252 592
749 2 2 3 1 114 127 128
750 2 2 3 1 222 240 474
751 2 2 3 1 138 135 144
752 2 2 3 1 187 195 196
753 2 2 3 1 445 392 495
754 2 2 3 1 71 72 503
755 2 2 3 1 284 283 354
756 2 2 3 1 234 304 486
757 2 2 3 1 407 133 571
758 2 2 3 1 129 141 476
759 2 2 3 1 110 115 143
760 2 2 3 1 134 136 185
761 2 2 3 1 303 267 461
762 2 2 3 1 104 106 194
763 2 2 3 1 171 52 523
764 2 2 3 1 142 150 151
765 2 2 3 1 128 135 137
766 2 2 3 1 137 138 139
767 2 2 3 1 148 147 153
768 2 2 3 1 210 256 465
769 2 2 3 1 93 230 491
770 2 2 3 1 249 209 472
771 2 2 3 1 172 495 509
772 2 2 3 1 271 343 345
773 2 2 3 1 198 223 459
774 2 2 3 1 177 399 485
775 2 2 3 1 224 226 313
776 2 2 3 1 173 251 470
777 2 2 3 1 187 188 195
778 2 2 3 1 182 206 472
779 2 2 3 1 252 373 562
780 2 2 3 1 492 192 505
781 2 2 3 1 121 312 468
782 2 2 3 1 158 156 470
783 2 2 3 1 287 254 324
784 2 2 3 1 392 347 495
785 2 2 3 1 185 186 187
786 2 2 3 1 156 173 470
787 2 2 3 1 296 327 485
788 2 2 3 1 120 117 121
789 2 2 3 1 427 429 532
790 2 2 3 1 206 300 472
791 2 2 3 1 162 183 471
792 2 2 3 1 450 147 477
793 2 2 3 1 352 353 518
794 2 2 3 1 511 297 569
795 2 2 3 1 438 439 520
796 2 2 3 1 326 260 473
797 2 2 3 1 137 135 138
798 2 2 3 1 175 161 471
799 2 2 3 1 88 87 525
800 2 2 3 1 418 9 554
801 2 2 3 1 260 279 473
802 2 2 3 1 104 12 105
803 2 2 3 1 133 39 496
804 2 2 3 1 161 162 471
805 2 2 3 1 115 111 116
806 2 2 3 1 279 211 481
807 2 2 3 1 115 116 125
808 2 2 3 1 241 221 482
809 2 2 3 1 120 476 479
810 2 2 3 1 209 182 472
811 2 2 3 1 305 334 539
812 2 2 3 1 110 111 115
813 2 2 3 1 440 328 550
814 2 2 3 1 110 107 111
815 2 2 3 1 106 105 107
816 2 2 3 1 130 121 468
817 2 2 3 1 459 460 480
818 2 2 3 1 489 286 566
819 2 2 3 1 234 486 489
820 2 2 3 1 221 219 482
821 2 2 3 1 217 215 480
822 2 2 3 1 122 432 531
823 2 2 3 1 106 107 110
824 2 2 3 1 522 321 544
825 2 2 3 1 150 130 468
826 2 2 3 1 116 117 120
827 2 2 3 1 50 51 483
828 2 2 3 1 140 142 477
829 2 2 3 1 399 400 501
830 2 2 3 1 114 128 469
831 2 2 3 1 147 140 477
832 2 2 3 1 215 459 480
833 2 2 3 1 419 364 498
834 2 2 3 1 224 313 481
835 2 2 3 1 51 6 369
836 2 2 3 1 104 105 106
837 2 2 3 1 149 447 528
838 2 2 3 1 347 333 495
839 2 2 3 1 195 224 481
840 2 2 3 1 166 202 234
841 2 2 3 1 365 366 444
842 2 2 3 1 205 34 500
843 2 2 3 1 75 178 538
844 2 2 3 1 246 308 604
845 2 2 3 1 234 253 304
846 2 2 3 1 280 281 282
847 2 2 3 1 80 177 499
848 2 2 3 1 233 502 513
849 2 2 3 1 409 332 522
850 2 2 3 1 211 195 481
851 2 2 3 1 219 243 482
852 2 2 3 1 243 217 480
853 2 2 3 1 460 296 485
854 2 2 3 1 399 460 485
855 2 2 3 1 185 463 497
856 2 2 3 1 533 524 560
857 2 2 3 1 487 320 488
858 2 2 3 1 144 135 497
859 2 2 3 1 278 74 538
860 2 2 3 1 119 10 165
861 2 2 3 1 249 472 504
862 2 2 3 1 282 283 284
863 2 2 3 1 116 111 117
864 2 2 3 1 233 197 502
865 2 2 3 1 191 415 530
866 2 2 3 1 135 134 497
867 2 2 3 1 324 254 510
868 2 2 3 1 472 300 504
869 2 2 3 1 103 421 556
870 2 2 3 1 467 359 572
871 2 2 3 1 451 477 512
872 2 2 3 1 471 338 502
873 2 2 3 1 447 71 503
874 2 2 3 1 384 205 516
875 2 2 3 1 367 287 368
876 2 2 3 1 312 117 508
877 2 2 3 1 178 410 602
878 2 2 3 1 239 190 541
879 2 2 3 1 194 106 484
880 2 2 3 1 137 207 469
881 2 2 3 1 119 166 489
882 2 2 3 1 110 143 484
883 2 2 3 1 108 113 114
884 2 2 3 1 227 442 493
885 2 2 3 1 151 158 512
886 2 2 3 1 329 443 550
887 2 2 3 1 144 440 540
888 2 2 3 1 181 443 555
889 2 2 3 1 8 73 573
890 2 2 3 1 72 8 573
891 2 2 3 1 134 185 497
892 2 2 3 1 143 115 490
893 2 2 3 1 253 202 254
894 2 2 3 1 327 272 506
895 2 2 3 1 208 152 529
896 2 2 3 1 503 546 606
897 2 2 3 1 175 471 502
898 2 2 3 1 358 236 534
899 2 2 3 1 502 338 513
900 2 2 3 1 144 497 520
901 2 2 3 1 197 175 502
902 2 2 3 1 106 110 484
903 2 2 3 1 270 287 367
904 2 2 3 1 108 114 297
905 2 2 3 1 115 125 490
906 2 2 3 1 234 202 253
907 2 2 3 1 300 372 504
908 2 2 3 1 524 362 560
909 2 2 3 1 128 137 469
910 2 2 3 1 203 213 244
911 2 2 3 1 119 165 166
912 2 2 3 1 166 201 202
913 2 2 3 1 518 193 576
914 2 2 3 1 229 455 594
915 2 2 3 1 201 165 204
916 2 2 3 1 276 436 598
917 2 2 3 1 529 468 560
918 2 2 3 1 526 586 599
919 2 2 3 1 287 324 494
920 2 2 3 1 282 284 492
921 2 2 3 1 547 400 557
922 2 2 3 1 297 114 469
923 2 2 3 1 157 208 534
924 2 2 3 1 495 333 509
925 2 2 3 1 458 436 581
926 2 2 3 1 464 321 522
927 2 2 3 1 400 132 557
928 2 2 3 1 341 377 397
929 2 2 3 1 332 330 522
930 2 2 3 1 166 165 201
931 2 2 3 1 539 334 545
932 2 2 3 1 244 280 311
933 2 2 3 1 150 468 529
934 2 2 3 1 164 379 521
935 2 2 3 1 181 145 540
936 2 2 3 1 190 170 572
937 2 2 3 1 497 463 520
938 2 2 3 1 131 478 558
939 2 2 3 1 29 30 527
940 2 2 3 1 270 254 287
941 2 2 3 1 83 84 507
942 2 2 3 1 348 136 514
943 2 2 3 1 253 254 270
944 2 2 3 1 512 158 537
945 2 2 3 1 166 234 489
946 2 2 3 1 368 287 494
947 2 2 3 1 272 306 506
948 2 2 3 1 441 96 511
949 2 2 3 1 319 320 577
950 2 2 3 1 477 142 512
951 2 2 3 1 415 184 588
952 2 2 3 1 359 358 541
953 2 2 3 1 30 385 527
954 2 2 3 1 49 5 590
955 2 2 3 1 35 4 574
956 2 2 3 1 4 36 574
957 2 2 3 1 298 371 562
958 2 2 3 1 333 332 509
959 2 2 3 1 335 370 542
960 2 2 3 1 257 204 340
961 2 2 3 1 503 278 546
962 2 2 3 1 242 204 257
963 2 2 3 1 448 393 575
964 2 2 3 1 444 349 552
965 2 2 3 1 414 320 603
966 2 2 3 1 142 151 512
967 2 2 3 1 501 400 547
968 2 2 3 1 342 2 568
969 2 2 3 1 200 467 572
970 2 2 3 1 51 369 483
971 2 2 3 1 107 105 193
972 2 2 3 1 409 522 544
973 2 2 3 1 201 204 242
974 2 2 3 1 242 257 325
975 2 2 3 1 404 326 563
976 2 2 3 1 403 180 519
977 2 2 3 1 349 317 552
978 2 2 3 1 9 102 554
979 2 2 3 1 159 181 555
980 2 2 3 1 341 340 377
981 2 2 3 1 433 191 530
982 2 2 3 1 393 391 581
983 2 2 3 1 276 231 575
984 2 2 3 1 301 357 553
985 2 2 3 1 377 230 535
986 2 2 3 1 519 414 603
987 2 2 3 1 138 144 540
988 2 2 3 1 230 456 535
989 2 2 3 1 205 500 586
990 2 2 3 1 306 233 513
991 2 2 3 1 466 313 536
992 2 2 3 1 203 244 310
993 2 2 3 1 271 345 536
994 2 2 3 1 366 342 568
995 2 2 3 1 237 444 552
996 2 2 3 1 487 171 577
997 2 2 3 1 338 465 513
998 2 2 3 1 293 248 561
999 2 2 3 1 280 282 505
1000 2 2 3 1 388 395 579
1001 2 2 3 1 320 487 577
1002 2 2 3 1 385 155 584
1003 2 2 3 1 320 269 603
1004 2 2 3 1 255 396 564
1005 2 2 3 1 199 448 575
1006 2 2 3 1 313 226 536
1007 2 2 3 1 252 250 592
1008 2 2 3 1 111 107 508
1009 2 2 3 1 247 276 598
1010 2 2 3 1 311 280 505
1011 2 2 3 1 447 503 606
1012 2 2 3 1 257 340 341
1013 2 2 3 1 542 178 602
1014 2 2 3 1 155 384 595
1015 2 2 3 1 451 512 537
1016 2 2 3 1 52 53 523
1017 2 2 3 1 13 2 342
1018 2 2 3 1 526 516 586
1019 2 2 3 1 330 464 522
1020 2 2 3 1 423 149 528
1021 2 2 3 1 416 194 589
1022 2 2 3 1 104 194 554
1023 2 2 3 1 228 88 525
1024 2 2 3 1 463 438 520
1025 2 2 3 1 117 111 508
1026 2 2 3 1 456 229 579
1027 2 2 3 1 254 202 510
1028 2 2 3 1 467 373 592
1029 2 2 3 1 11 94 566
1030 2 2 3 1 452 451 537
1031 2 2 3 1 118 409 544
1032 2 2 3 1 428 427 532
1033 2 2 3 1 432 433 531
1034 2 2 3 1 315 252 562
1035 2 2 3 1 307 467 592
1036 2 2 3 1 202 201 510
1037 2 2 3 1 473 279 532
1038 2 2 3 1 282 492 505
1039 2 2 3 1 341 397 543
1040 2 2 3 1 274 49 590
1041 2 2 3 1 452 537 559
1042 2 2 3 1 465 336 548
1043 2 2 3 1 286 11 566
1044 2 2 3 1 158 454 537
1045 2 2 3 1 494 155 595
1046 2 2 3 1 5 50 590
1047 2 2 3 1 243 501 547
1048 2 2 3 1 152 150 529
1049 2 2 3 1 356 314 530
1050 2 2 3 1 236 157 534
1051 2 2 3 1 482 243 547
1052 2 2 3 1 388 579 594
1053 2 2 3 1 201 242 510
1054 2 2 3 1 74 75 538
1055 2 2 3 1 310 244 515
1056 2 2 3 1 316 425 585
1057 2 2 3 1 290 239 541
1058 2 2 3 1 244 311 515
1059 2 2 3 1 352 518 576
1060 2 2 3 1 442 304 565
1061 2 2 3 1 362 529 560
1062 2 2 3 1 325 257 517
1063 2 2 3 1 537 454 559
1064 2 2 3 1 145 138 540
1065 2 2 3 1 253 270 565
1066 2 2 3 1 326 473 563
1067 2 2 3 1 316 585 600
1068 2 2 3 1 494 324 584
1069 2 2 3 1 413 123 591
1070 2 2 3 1 226 271 536
1071 2 2 3 1 318 547 557
1072 2 2 3 1 257 341 517
1073 2 2 3 1 321 351 544
1074 2 2 3 1 336 335 542
1075 2 2 3 1 318 482 547
1076 2 2 3 1 424 504 556
1077 2 2 3 1 328 329 550
1078 2 2 3 1 107 193 508
1079 2 2 3 1 143 539 545
1080 2 2 3 1 119 489 566
1081 2 2 3 1 491 340 597
1082 2 2 3 1 370 337 546
1083 2 2 3 1 368 516 526
1084 2 2 3 1 349 444 567
1085 2 2 3 1 279 481 607
1086 2 2 3 1 462 426 558
1087 2 2 3 1 339 462 558
1088 2 2 3 1 407 344 599
1089 2 2 3 1 420 348 582
1090 2 2 3 1 444 366 567
1091 2 2 3 1 270 493 565
1092 2 2 3 1 143 490 539
1093 2 2 3 1 395 277 596
1094 2 2 3 1 124 404 563
1095 2 2 3 1 518 353 524
1096 2 2 3 1 483 274 590
1097 2 2 3 1 10 491 597
1098 2 2 3 1 421 424 556
1099 2 2 3 1 426 131 558
1100 2 2 3 1 325 517 527
1101 2 2 3 1 189 390 605
1102 2 2 3 1 277 397 596
1103 2 2 3 1 453 316 600
1104 2 2 3 1 369 487 587
1105 2 2 3 1 125 434 608
1106 2 2 3 1 484 143 545
1107 2 2 3 1 487 488 587
1108 2 2 3 1 372 301 553
1109 2 2 3 1 559 355 570
1110 2 2 3 1 468 312 560
1111 2 2 3 1 228 525 580
1112 2 2 3 1 317 350 552
1113 2 2 3 1 189 159 555
1114 2 2 3 1 194 484 589
1115 2 2 3 1 454 355 559
1116 2 2 3 1 284 354 551
1117 2 2 3 1 373 298 562
1118 2 2 3 1 397 377 596
1119 2 2 3 1 396 387 583
1120 2 2 3 1 1 13 593
1121 2 2 3 1 123 441 578
1122 2 2 3 1 406 407 599
1123 2 2 3 1 353 425 601
1124 2 2 3 1 513 465 548
1125 2 2 3 1 306 513 548
1126 2 2 3 1 417 416 589
1127 2 2 3 1 302 559 570
1128 2 2 3 1 500 35 574
1129 2 2 3 1 102 104 554
1130 2 2 3 1 393 448 605
1131 2 2 3 1 324 549 584
1132 2 2 3 1 518 524 533
1133 2 2 3 1 350 318 557
1134 2 2 3 1 528 447 606
1135 2 2 3 1 303 519 603
1136 2 2 3 1 248 249 561
1137 2 2 3 1 109 412 585
1138 2 2 3 1 302 452 559
1139 2 2 3 1 355 356 570
1140 2 2 3 1 73 278 573
1141 2 2 3 1 170 200 572
1142 2 2 3 1 488 274 587
1143 2 2 3 1 228 580 583
1144 2 2 3 1 345 343 571
1145 2 2 3 1 36 322 574
1146 2 2 3 1 583 387 594
1147 2 2 3 1 94 119 566
1148 2 2 3 1 204 165 597
1149 2 2 3 1 425 361 601
1150 2 2 3 1 351 319 577
1151 2 2 3 1 569 364 578
1152 2 2 3 1 503 72 573
1153 2 2 3 1 193 105 576
1154 2 2 3 1 357 302 570
1155 2 2 3 1 410 411 602
1156 2 2 3 1 412 413 600
1157 2 2 3 1 387 388 594
1158 2 2 3 1 334 246 604
1159 2 2 3 1 585 412 600
1160 2 2 3 1 496 345 571
1161 2 2 3 1 390 393 605
1162 2 2 3 1 364 363 578
1163 2 2 3 1 304 253 565
1164 2 2 3 1 493 442 565
1165 2 2 3 1 441 569 578
1166 2 2 3 1 517 341 543
1167 2 2 3 1 231 199 575
1168 2 2 3 1 391 458 581
1169 2 2 3 1 504 372 556
1170 2 2 3 1 486 304 582
1171 2 2 3 1 274 483 587
1172 2 2 3 1 123 578 591
1173 2 2 3 1 322 500 574
1174 2 2 3 1 250 307 592
1175 2 2 3 1 377 535 596
1176 2 2 3 1 348 486 582
1177 2 2 3 1 578 363 591
1178 2 2 3 1 133 496 571
1179 2 2 3 1 363 453 591
1180 2 2 3 1 586 406 599
1181 2 2 3 1 312 533 560
1182 2 2 3 1 155 494 584
1183 2 2 3 1 323 247 598
1184 2 2 3 1 498 364 569
1185 2 2 3 1 105 12 576
1186 2 2 3 1 448 189 605
1187 2 2 3 1 269 303 603
1188 2 2 3 1 570 356 588
1189 2 2 3 1 516 368 595
1190 2 2 3 1 357 570 588
1191 2 2 3 1 278 503 573
1192 2 2 3 1 441 511 569
1193 2 2 3 1 50 483 590
1194 2 2 3 1 525 310 580
1195 2 2 3 1 384 516 595
1196 2 2 3 1 310 515 564
1197 2 2 3 1 336 542 602
1198 2 2 3 1 481 313 607
1199 2 2 3 1 535 395 596
1200 2 2 3 1 344 526 599
1201 2 2 3 1 490 125 608
1202 2 2 3 1 375 490 608
1203 2 2 3 1 165 10 597
1204 2 2 3 1 483 369 587
1205 2 2 3 1 368 494 595
1206 2 2 3 1 13 342 593
1207 2 2 3 1 516 205 586
1208 2 2 3 1 337 528 606
1209 2 2 3 1 545 417 589
1210 2 2 3 1 580 396 583
1211 2 2 3 1 524 353 601
1212 2 2 3 1 310 564 580
1213 2 2 3 1 484 545 589
1214 2 2 3 1 549 385 584
1215 2 2 3 1 546 337 606
1216 2 2 3 1 564 396 580
$EndElements
